# AST/ASF file generated using VICON BodyLanguage
# -----------------------------------------------
:version 1.10
:name VICON
:units
  mass 1.0
  length 0.45
  angle deg
:documentation
   .ast/.asf automatically generated from VICON data using
   VICON BodyBuilder and BodyLanguage model FoxedUp or BRILLIANT.MOD
:root
   order TX TY TZ RX RY RZ
   axis XYZ
   position 0 0 0  
   orientation 0 0 0 
:bonedata
  begin
     id 1 
     name lhipjoint
     direction 0.578396 -0.714046 0.394458 
     length 2.21935 
     axis 0 0 0  XYZ
  end
  begin
     id 2 
     name lfemur
     direction 0.34202 -0.939693 0  
     length 6.39105  
     axis 0 0 20  XYZ
    dof rx ry rz
    limits (-160.0 20.0)
           (-70.0 70.0)
           (-60.0 70.0)
  end
  begin
     id 3 
     name ltibia
     direction 0.34202 -0.939693 0   
     length 6.99037   
     axis 0 0 20   XYZ
    dof rx
    limits (-10.0 170.0)
  end
  begin
     id 4 
     name lfoot
     direction 0.0582372 -0.160005 0.985397   
     length 2.06111   
     axis -90 7.62852e-016 20   XYZ
    dof rx rz
    limits (-45.0 90.0)
           (-70.0 20.0)
  end
  begin
     id 5 
     name ltoes
     direction 1.53556e-011 -4.21875e-011 1   
     length 1.04074   
     axis -90 7.62852e-016 20   XYZ
    dof rx
    limits (-90.0 20.0)
  end
  begin
     id 6 
     name rhipjoint
     direction -0.558179 -0.726269 0.40121   
     length 2.182  
     axis 0 0 0  XYZ 
  end
  begin
     id 7 
     name rfemur
     direction -0.34202 -0.939693 0   
     length 6.51172   
     axis 0 0 -20   XYZ
    dof rx ry rz
    limits (-160.0 20.0)
           (-70.0 70.0)
           (-70.0 60.0)
  end
  begin
     id 8 
     name rtibia
     direction -0.34202 -0.939693 0   
     length 7.02607   
     axis 0 0 -20   XYZ
    dof rx
    limits (-10.0 170.0)
 end
 begin
     id 9 
     name rfoot
     direction -0.0788856 -0.216737 0.973038   
     length 1.96734  
     axis -90 -7.62852e-016 -20   XYZ
    dof rx rz
    limits (-45.0 90.0)
           (-20.0 70.0)
  end
  begin
     id 10 
     name rtoes
     direction -1.53567e-011 -4.21783e-011 1   
     length 0.990825   
     axis -90 -7.62852e-016 -20   XYZ
    dof rx
    limits (-90.0 20.0)
  end
  begin
     id 11 
     name lowerback
     direction 0.00668177 0.999323 -0.0361741   
     length 1.7655   
     axis 0 0 0   XYZ
    dof rx ry rz
    limits (-20.0 45.0)
           (-30.0 30.0)
           (-30.0 30.0)
  end
  begin
     id 12 
     name upperback
     direction -0.00222086 0.99851 0.0545167   
     length 1.74912   
     axis 0 0 0   XYZ
    dof rx ry rz
    limits (-20.0 45.0)
           (-30.0 30.0)
           (-30.0 30.0)
  end
  begin
     id 13 
     name thorax
     direction -0.00733971 0.997496 0.0703443   
     length 1.75715   
     axis 0 0 0   XYZ
    dof rx ry rz
    limits (-20.0 45.0)
           (-30.0 30.0)
           (-30.0 30.0)
  end
  begin
     id 14 
     name lowerneck
     direction 0.0279797 0.994795 0.0979765   
     length 1.46939   
     axis 0 0 0   XYZ
    dof rx ry rz
    limits (-20.0 45.0)
           (-30.0 30.0)
           (-30.0 30.0)
  end
  begin
     id 15 
     name upperneck
     direction 0.00339187 0.976776 -0.214238   
     length 1.48018   
     axis 0 0 0   XYZ
    dof rx ry rz
    limits (-20.0 45.0)
           (-30.0 30.0)
           (-30.0 30.0)
  end
  begin
     id 16
     name head
     direction -0.00263506 0.996603 -0.0823096  
     length 1.4976  
     axis 0 0 0   XYZ
    dof rx ry rz
    limits (-20.0 45.0)
           (-30.0 30.0)
           (-30.0 30.0)
  end
  begin
     id 17 
     name lclavicle
     direction 0.894044 0.44508 -0.0508781  
     length 3.03024  
     axis 0 0 0   XYZ
    dof ry rz
    limits (-20.0 10.0)
           (0.0 20.0)
  end
  begin
     id 18 
     name lhumerus
     direction 1 -4.48961e-011 -2.39475e-018   
     length 4.4661   
     axis 180 -30 -90   XYZ
    dof rx ry rz
    limits (-60.0 90.0)
           (-90.0 90.0)
           (-90.0 90.0)
  end
  begin
     id 19
     name lradius
     direction 1 -4.48961e-011 9.29328e-028   
     length 3.41414   
     axis 180 -30 -90   XYZ
    dof rx
    limits (-10.0 170.0)
  end
  begin
     id 20
     name lwrist
     direction 1 -4.48985e-011 1.53461e-026   
     length 1.70707   
     axis -1.09697e-014 90 90   XYZ
    dof ry
    limits (-180.0 0.0)
 end
  begin
     id 21 
     name lhand
     direction 1 -4.48966e-011 3.06923e-026   
     length 0.328298   
     axis -1.95843e-014 90 90   XYZ
    dof rx rz
    limits (-90.0 90.0)
           (-45.0 45.0)
  end
  begin
     id 22 
     name lfingers
     direction 1 -4.48893e-011 6.13845e-026   
     length 0.264682   
     axis -3.91686e-014 90 90   XYZ
    dof rx
    limits (0.0 90.0)
  end
  begin
     id 23
     name lthumb
     direction 0.707107 -6.34876e-011 0.707107   
     length 0.380032   
     axis -90 45 2.85299e-015   XYZ
    dof rx rz
    limits (-45.0 45.0)
           (-45.0 45.0)
  end
  begin
     id 24 
     name rclavicle
     direction -0.936955 0.347862 -0.0332887   
     length 3.26927  
     axis 0 0 0   XYZ 
    dof ry rz
    limits (-10.0 20.0)
           (-20.0 0.0)
  end
  begin
     id 25 
     name rhumerus
     direction -1 -4.4896e-011 1.78637e-018  
     length 4.40431   
     axis 180 30 90   XYZ
    dof rx ry rz
    limits (-90.0 60.0)
           (-90.0 90.0)
           (-90.0 90.0)
  end
  begin
     id 26 
     name rradius
     direction -1 -4.48955e-011 9.34036e-027   
     length 3.04688   
     axis 180 30 90   XYZ
    dof rx
    limits (-10.0 170.0)
  end
  begin
     id 27 
     name rwrist
     direction -1 -4.49011e-011 1.53461e-026   
     length 1.52344   
     axis -1.09697e-014 -90 -90   XYZ
    dof ry
    limits (-180.0 0.0)
  end
  begin
     id 28
     name rhand
     direction -1 -4.48834e-011 3.06923e-026   
     length 0.500489   
     axis -1.95843e-014 -90 -90   XYZ
    dof rx rz
    limits (-90.0 90.0)
           (-45.0 45.0)
  end
  begin
     id 29
     name rfingers
     direction -1 -4.48967e-011 6.13845e-026   
     length 0.403507   
     axis -3.91686e-014 -90 -90   XYZ
    dof rx
    limits (0.0 90.0)
  end
  begin
     id 30
     name rthumb
     direction -0.707107 -6.34826e-011 0.707107   
     length 0.579358   
     axis -90 -45 -2.85299e-015   XYZ
    dof rx rz
    limits (-45.0 45.0)
           (-45.0 45.0)
  end
:hierarchy
  begin
    root lhipjoint rhipjoint lowerback
    lhipjoint lfemur
    lfemur ltibia
    ltibia lfoot
    lfoot ltoes
    rhipjoint rfemur
    rfemur rtibia
    rtibia rfoot
    rfoot rtoes
    lowerback upperback
    upperback thorax
    thorax lowerneck lclavicle rclavicle
    lowerneck upperneck
    upperneck head
    lclavicle lhumerus
    lhumerus lradius
    lradius lwrist
    lwrist lhand lthumb
    lhand lfingers
    rclavicle rhumerus
    rhumerus rradius
    rradius rwrist
    rwrist rhand rthumb
    rhand rfingers
  end

#!OML:ASF H:\IndianDance\Patient Classification 1\Patient 1\Session 1\dancer.ASF
:FULLY-SPECIFIED
:DEGREES
1358
root -0.00955236 14.6561 -0.766638 -172.464 10.2175 -177.355
lowerback 6.15423 0.632655 -3.23935
upperback -6.65662 0.693029 -0.885823
thorax -10.5995 0.660581 0.739054
lowerneck -9.93499 -14.228 -10.3743
upperneck 14.9664 -19.9704 14.1887
head 8.82208 -8.70659 3.93287
rclavicle -2.12203e-014 -6.36111e-015
rhumerus -0.932002 15.4955 -23.2182
rradius 34.7692
rwrist -41.777
rhand -3.03573 -5.95765
rfingers 7.12502
rthumb 22.6797 -34.6449
lclavicle -2.12203e-014 -6.36111e-015
lhumerus -6.84161 -20.3514 -8.94295
lradius 32.4751
lwrist -5.01316
lhand 9.37099 8.82812
lfingers 7.12502
lthumb 34.5295 35.4928
rfemur -216.176 203.642 206.862
rtibia 61.6365
rfoot -23.1057 -365.964
rtoes 7.62316
lfemur -28.6706 23.8206 -20.2327
ltibia 53.6992
lfoot -29.7972 12.326
ltoes 2.40583
1359
root -0.0215232 14.6508 -0.768113 -172.653 10.7571 -177.451
lowerback 6.35369 0.638199 -3.1177
upperback -6.66794 0.686998 -1.08989
thorax -10.7274 0.640147 0.449452
lowerneck -9.78641 -14.3503 -10.4828
upperneck 14.5868 -20.0821 14.005
head 8.67072 -8.82102 3.88011
rclavicle 2.02263e-014 1.74931e-014
rhumerus -0.202009 15.3443 -22.7967
rradius 35.9792
rwrist -45.5313
rhand -3.00889 -8.67617
rfingers 7.12502
rthumb 22.7054 -37.3603
lclavicle 2.02263e-014 1.74931e-014
lhumerus -6.66192 -19.7921 -9.47568
lradius 32.0574
lwrist -5.78056
lhand 9.65354 8.90949
lfingers 7.12502
lthumb 34.7977 35.5126
rfemur -216.817 203.823 206.547
rtibia 62.9117
rfoot -21.9764 -364.812
rtoes 7.44037
lfemur -28.3865 24.1129 -20.3377
ltibia 53.6659
lfoot -29.808 12.515
ltoes 2.49727
1360
root -0.0340556 14.6448 -0.768618 -172.859 11.3324 -177.612
lowerback 6.60644 0.645723 -3.05171
upperback -6.68993 0.675173 -1.30201
thorax -10.901 0.621442 0.181468
lowerneck -9.65106 -14.463 -10.574
upperneck 14.1355 -20.1693 13.7781
head 8.48811 -8.93009 3.81648
rclavicle 3.81667e-014 -5.56597e-014
rhumerus 0.607455 15.1041 -22.2555
rradius 37.3129
rwrist -49.2839
rhand -3.41672 -11.5016
rfingers 7.12502
rthumb 22.314 -40.2331
lclavicle 3.81667e-014 -5.56597e-014
lhumerus -6.54123 -19.3035 -10.0068
lradius 31.6824
lwrist -6.43413
lhand 9.97411 8.97152
lfingers 7.12502
lthumb 35.1018 35.5038
rfemur -217.592 203.998 206.147
rtibia 64.3495
rfoot -20.6704 -363.583
rtoes 7.26067
lfemur -28.0921 24.399 -20.513
ltibia 53.6238
lfoot -29.8391 12.6823
ltoes 2.78362
1361
root -0.0468431 14.6382 -0.767973 -173.08 11.9483 -177.838
lowerback 6.91195 0.656757 -3.03942
upperback -6.72391 0.659361 -1.52387
thorax -11.1218 0.605207 -0.0684576
lowerneck -9.52802 -14.5638 -10.6393
upperneck 13.6069 -20.2282 13.5034
head 8.2708 -9.03143 3.74089
rclavicle 5.96354e-016 1.27222e-014
rhumerus 1.51339 14.7351 -21.6013
rradius 38.7305
rwrist -52.9692
rhand -4.2062 -14.4145
rfingers 7.12502
rthumb 21.5559 -43.2349
lclavicle 5.96354e-016 1.27222e-014
lhumerus -6.48177 -18.9026 -10.5398
lradius 31.3527
lwrist -6.90885
lhand 10.3216 9.04625
lfingers 7.12502
lthumb 35.4313 35.5005
rfemur -218.508 204.153 205.661
rtibia 65.9278
rfoot -19.1857 -362.279
rtoes 7.28919
lfemur -27.795 24.6981 -20.7614
ltibia 53.5696
lfoot -29.8759 12.8364
ltoes 3.17591
1362
root -0.0592144 14.631 -0.766382 -173.308 12.6035 -178.13
lowerback 7.26186 0.67487 -3.08707
upperback -6.77373 0.643642 -1.75722
thorax -11.3894 0.594195 -0.299792
lowerneck -9.40095 -14.6561 -10.6727
upperneck 12.9805 -20.2659 13.1966
head 8.01198 -9.12691 3.65872
rclavicle -1.82882e-014 -1.03368e-014
rhumerus 2.50882 14.2046 -20.8494
rradius 40.1959
rwrist -56.5325
rhand -5.29581 -17.3861
rfingers 7.12502
rthumb 20.5092 -46.3228
lclavicle -1.82882e-014 -1.03368e-014
lhumerus -6.46262 -18.5783 -11.0753
lradius 31.0573
lwrist -7.18739
lhand 10.6827 9.15473
lfingers 7.12502
lthumb 35.7735 35.5266
rfemur -219.568 204.279 205.098
rtibia 67.6131
rfoot -17.5247 -360.926
rtoes 7.58714
lfemur -27.5062 25.0287 -21.0818
ltibia 53.5057
lfoot -29.9144 12.9731
ltoes 3.65093
1363
root -0.0714051 14.6234 -0.763967 -173.531 13.292 -178.464
lowerback 7.64394 0.694631 -3.16348
upperback -6.84381 0.624667 -2.00028
thorax -11.7015 0.584623 -0.527878
lowerneck -9.252 -14.7331 -10.6637
upperneck 12.2426 -20.2759 12.8719
head 7.70478 -9.21164 3.57667
rclavicle -5.46658e-015 4.21423e-014
rhumerus 3.60053 13.5021 -20.0306
rradius 41.6643
rwrist -59.9304
rhand -6.58932 -20.3635
rfingers 7.12502
rthumb 19.2658 -49.4292
lclavicle -5.46658e-015 4.21423e-014
lhumerus -6.48199 -18.3218 -11.6275
lradius 30.7883
lwrist -7.28738
lhand 11.042 9.30349
lfingers 7.12502
lthumb 36.1139 35.5919
rfemur -220.778 204.368 204.491
rtibia 69.3622
rfoot -15.7028 -359.57
rtoes 8.15102
lfemur -27.245 25.3903 -21.4549
ltibia 53.4409
lfoot -29.9529 13.1008
ltoes 4.16192
1364
root -0.08301 14.6151 -0.761002 -173.741 14.0114 -178.815
lowerback 8.04951 0.721485 -3.24175
upperback -6.93187 0.613095 -2.24976
thorax -12.0503 0.579227 -0.766329
lowerneck -9.08107 -14.8022 -10.6233
upperneck 11.3996 -20.2709 12.5462
head 7.35711 -9.28891 3.50006
rclavicle -1.13307e-014 -2.46493e-014
rhumerus 4.77082 12.6489 -19.1465
rradius 43.1238
rwrist -63.1855
rhand -8.02386 -23.3059
rfingers 7.12502
rthumb 17.8859 -52.5034
lclavicle -1.13307e-014 -2.46493e-014
lhumerus -6.51194 -18.0978 -12.1938
lradius 30.5315
lwrist -7.26875
lhand 11.3837 9.49851
lfingers 7.12502
lthumb 36.4375 35.7063
rfemur -222.123 204.409 203.871
rtibia 71.1253
rfoot -13.7798 -358.245
rtoes 9.03527
lfemur -27.0187 25.7918 -21.852
ltibia 53.3857
lfoot -29.9991 13.2109
ltoes 4.71671
1365
root -0.0940679 14.6059 -0.757867 -173.933 14.7495 -179.158
lowerback 8.47195 0.748045 -3.29228
upperback -7.03821 0.603368 -2.49903
thorax -12.4321 0.572748 -1.02387
lowerneck -8.91098 -14.866 -10.5522
upperneck 10.4878 -20.2557 12.2158
head 6.98563 -9.35787 3.42533
rclavicle -5.12864e-014 5.00937e-014
rhumerus 6.0207 11.6568 -18.2184
rradius 44.549
rwrist -66.2784
rhand -9.52414 -26.1289
rfingers 7.12502
rthumb 16.4418 -55.4522
lclavicle -5.12864e-014 5.00937e-014
lhumerus -6.55253 -17.8636 -12.7702
lradius 30.2703
lwrist -7.2232
lhand 11.711 9.72269
lfingers 7.12502
lthumb 36.7474 35.852
rfemur -223.574 204.405 203.271
rtibia 72.8478
rfoot -11.8441 -356.982
rtoes 10.1488
lfemur -26.8339 26.2306 -22.2462
ltibia 53.3512
lfoot -30.0408 13.3183
ltoes 5.2046
1366
root -0.104713 14.5961 -0.755164 -174.098 15.4956 -179.479
lowerback 8.89872 0.767746 -3.28326
upperback -7.16287 0.591544 -2.75692
thorax -12.8391 0.559686 -1.32738
lowerneck -8.78221 -14.9314 -10.429
upperneck 9.5698 -20.244 11.8666
head 6.61523 -9.42032 3.33929
rclavicle 5.58585e-014 -2.38542e-014
rhumerus 7.33582 10.5356 -17.2799
rradius 45.9155
rwrist -69.1885
rhand -11.0133 -28.7335
rfingers 7.12502
rthumb 15.0076 -58.1696
lclavicle 5.58585e-014 -2.38542e-014
lhumerus -6.58877 -17.6077 -13.3825
lradius 30.0029
lwrist -7.21237
lhand 12.0435 9.9668
lfingers 7.12502
lthumb 37.0618 36.0153
rfemur -225.111 204.359 202.71
rtibia 74.4772
rfoot -10.0163 -355.846
rtoes 11.2837
lfemur -26.6971 26.7043 -22.6246
ltibia 53.3438
lfoot -30.0715 13.4389
ltoes 5.55196
1367
root -0.114982 14.5859 -0.753454 -174.236 16.2378 -179.765
lowerback 9.31782 0.769103 -3.20921
upperback -7.30165 0.564864 -3.01326
thorax -13.2595 0.533067 -1.666
lowerneck -8.68969 -14.9837 -10.2518
upperneck 8.65338 -20.2169 11.5038
head 6.2456 -9.46717 3.24618
rclavicle -3.32964e-014 -1.43125e-014
rhumerus 8.7357 9.30278 -16.3546
rradius 47.2062
rwrist -71.8667
rhand -12.4127 -31.0067
rfingers 7.12502
rthumb 13.6593 -60.5384
lclavicle -3.32964e-014 -1.43125e-014
lhumerus -6.64208 -17.32 -14.0281
lradius 29.7234
lwrist -7.29019
lhand 12.3647 10.2081
lfingers 7.12502
lthumb 37.3656 36.1771
rfemur -226.695 204.273 202.203
rtibia 75.9588
rfoot -8.4184 -354.915
rtoes 12.3636
lfemur -26.6031 27.1982 -22.9728
ltibia 53.364
lfoot -30.084 13.5734
ltoes 5.73056
1368
root -0.124894 14.5756 -0.753083 -174.347 16.9641 -180.013
lowerback 9.722 0.75847 -3.05551
upperback -7.44545 0.534824 -3.27282
thorax -13.6786 0.495689 -2.05493
lowerneck -8.64353 -15.0312 -10.0277
upperneck 7.74895 -20.1863 11.1377
head 5.88461 -9.50328 3.1468
rclavicle 2.3059e-014 -2.70347e-014
rhumerus 10.1873 7.94539 -15.4497
rradius 48.4058
rwrist -74.2457
rhand -13.6479 -32.862
rfingers 7.12502
rthumb 12.4686 -62.47
lclavicle 2.3059e-014 -2.70347e-014
lhumerus -6.67812 -16.9663 -14.6918
lradius 29.4282
lwrist -7.48438
lhand 12.6833 10.4285
lfingers 7.12502
lthumb 37.6667 36.3176
rfemur -228.291 204.157 201.756
rtibia 77.2444
rfoot -7.14589 -354.288
rtoes 13.3938
lfemur -26.5456 27.7073 -23.2845
ltibia 53.4075
lfoot -30.0992 13.6882
ltoes 5.85293
1369
root -0.134581 14.5659 -0.754361 -174.434 17.6622 -180.223
lowerback 10.1104 0.734715 -2.8194
upperback -7.58764 0.501457 -3.53157
thorax -14.0884 0.446448 -2.49109
lowerneck -8.63858 -15.07 -9.77456
upperneck 6.85154 -20.1463 10.7813
head 5.5322 -9.52651 3.04817
rclavicle 4.34344e-014 -7.31528e-014
rhumerus 11.6938 6.4594 -14.5824
rradius 49.4925
rwrist -76.2339
rhand -14.6493 -34.225
rfingers 7.12502
rthumb 11.5029 -63.8893
lclavicle 4.34344e-014 -7.31528e-014
lhumerus -6.70081 -16.5282 -15.3494
lradius 29.12
lwrist -7.78286
lhand 12.9845 10.6333
lfingers 7.12502
lthumb 37.9512 36.4458
rfemur -229.87 204.018 201.366
rtibia 78.2873
rfoot -6.24666 -354.065
rtoes 14.2697
lfemur -26.5156 28.2183 -23.5618
ltibia 53.4647
lfoot -30.1019 13.7952
ltoes 5.8712
